<?xml version="1.0" encoding="utf-8"?>
<!-- Generator: Adobe Illustrator 27.8.1, SVG Export Plug-In . SVG Version: 6.00 Build 0)  -->
<svg version="1.1" id="Layer_1" xmlns="http://www.w3.org/2000/svg" xmlns:xlink="http://www.w3.org/1999/xlink" x="0px" y="0px"
	 viewBox="0 0 208.7 25" style="enable-background:new 0 0 208.7 25;" xml:space="preserve">
<style type="text/css">
	.st0{fill:#114B7C;}
	.st1{fill:#74B1DE;}
	.st2{fill:#124B7C;}
	.st3{fill:#75B2DE;}
	.st4{fill:#75B2DF;}
</style>
<g>
	<path class="st0" d="M53.5,20.1c0,1.2,0,2.4,0,3.6c0,0.6-0.2,0.8-0.8,0.8c-0.7,0-1.5-0.1-2.2-0.1c-0.5,0-0.4-0.3-0.4-0.6
		c0.1-1.5,0.1-3,0.1-4.5c0.2-4.1-1.7-7.2-5-9.5c-5.9-4-14.1-2.8-18.4,2.6c-1.4,1.8-2.2,3.9-2.2,6.3c0,1.7-0.1,3.4,0,5.1
		c0,0.5-0.2,0.8-0.7,0.7c-0.5,0-1,0-1.5-0.1c-1.2,0-1.2,0-1.1-1.2c0.1-2.2,0.1-4.5,0.2-6.7c0-0.5,0-0.9,0.7-0.8
		c0.4,0,0.4-0.3,0.5-0.5c2.1-6.8,9.4-10.7,16.5-10c4.6,0.5,8.5,2.4,11.4,6.1c0.9,1.2,1.5,2.5,2,3.9c0.1,0.4,0.2,0.7,0.7,0.6
		c0.5-0.1,0.6,0.3,0.6,0.7c0,1.2,0,2.3,0,3.5C53.6,20.1,53.6,20.1,53.5,20.1z"/>
	<path class="st1" d="M166.1,13.3c0-1.9,0-3.9,0-5.8c0-0.5,0-0.9,0.7-0.9c0.7,0,0.8,0.3,0.8,0.9c0,3.7,0,7.3,0,11
		c0,2.4,1.6,4.1,3.9,4.1c2.4,0,4.1-1.6,4.1-4.1c0-3.7,0-7.4,0-11c0-0.6,0.2-0.8,0.8-0.8c0.7,0,0.7,0.4,0.7,0.9c0,3.7,0,7.4,0,11
		c0,2.9,2.7,4.8,5.4,3.8c1.6-0.6,2.6-2.1,2.6-3.9c0-3.7,0-7.3,0-11c0-0.7,0.2-1,0.9-0.9c0.4,0,0.6,0.2,0.6,0.6c0,4,0,8.1,0,12.1
		c0,2-1.7,3.9-3.8,4.5c-2.2,0.7-4.5,0-5.9-1.7c-0.4-0.5-0.6-0.6-1,0c-1.5,1.9-3.9,2.5-6.1,1.7c-2.2-0.8-3.5-2.7-3.5-5.1
		C166.1,16.9,166.1,15.1,166.1,13.3z"/>
	<path class="st2" d="M11.3,8.2c-2,0-3.9,0-5.9,0c-1.8,0-3.2,1.3-3.3,3c-0.1,1.8,1.2,3.3,3.1,3.3c2.8,0.1,5.5,0,8.3,0.1
		c2.4,0,4.2,1.7,4.6,4.1c0.4,2.2-1,4.4-3.1,5.1c-0.5,0.2-1.1,0.3-1.7,0.3c-3.9,0-7.9,0-11.8,0c-0.5,0-0.9,0-0.9-0.7
		c0-0.7,0.3-0.8,0.9-0.8c3.9,0,7.8,0,11.7,0c1.6,0,2.8-0.9,3.3-2.3c0.4-1.3-0.1-2.7-1.2-3.5c-0.6-0.4-1.3-0.6-2-0.6
		c-2.6,0-5.3,0-7.9,0c-2.4,0-4.4-1.7-4.7-4.1c-0.3-2.3,1-4.5,3.3-5.2C4.5,6.7,5,6.6,5.6,6.6c3.9,0,7.8,0,11.7,0
		c0.7,0,0.8,0.2,0.8,0.8c0,0.7-0.2,0.8-0.8,0.8C15.3,8.2,13.3,8.2,11.3,8.2z"/>
	<path class="st1" d="M137.8,15.4c2,1.4,2.3,3.4,2.2,5.5c0,0.7,0,1.4,0,2.2c0,0.5,0.1,1-0.8,1c-0.9,0-0.8-0.5-0.8-1.1
		c0-1.3,0-2.5,0-3.8c0-1.7-1.4-3.1-3.1-3.1c-3.5,0-7,0-10.5,0c-0.6,0-0.8,0.2-0.8,0.8c0,2.1,0,4.2,0,6.2c0,0.6-0.1,1-0.9,1
		c-0.8,0-0.7-0.4-0.7-0.9c0-2.6,0-5.1,0-7.7c0-0.8,0.2-1,1-1c3.9,0,7.9,0,11.8,0c1.4,0,2.4-0.6,2.9-1.9c0.5-1.2,0.4-2.4-0.5-3.4
		c-0.6-0.8-1.4-1.1-2.5-1.1c-4,0-7.9,0-11.9,0c-0.6,0-0.9,0-0.9-0.8c0-0.7,0.3-0.8,0.9-0.8c3.8,0,7.7,0,11.5,0
		c2.7,0,4.6,1.5,5.1,4.2C140.1,12.7,139.3,14.2,137.8,15.4z"/>
	<path class="st2" d="M86.7,8.2c-2,0-4.1,0-6.1,0C80,8.3,79.9,8,80,7.4c0-0.5,0-0.8,0.7-0.8c4,0,7.9,0,11.9,0c2.9,0,5,2.1,5,4.8
		c0,2.7-2.2,4.7-5.1,4.7c-3.3,0-6.7,0-10,0c-0.7,0-0.9,0.1-0.9,0.9c0.1,2.1,0,4.2,0,6.3c0,0.7-0.2,0.8-0.8,0.8
		c-0.6,0-0.8-0.2-0.8-0.8c0-2.7,0-5.3,0-8c0-0.6,0.2-0.8,0.8-0.8c3.8,0,7.7,0,11.5,0c0.9,0,1.8-0.1,2.5-0.8c1-0.9,1.4-2.2,1-3.5
		c-0.5-1.3-1.6-2.1-3-2.1C90.8,8.2,88.8,8.2,86.7,8.2z"/>
	<path class="st1" d="M112.6,8.2c-1.5,0.1-3.2-0.2-5,0.2c-3.2,0.7-5.6,3.9-5.5,7.2c0.1,3.8,3.5,7.2,7.5,7c2.5-0.1,5,0,7.5,0
		c0.6,0,1.1,0,1,0.8c0,0.9-0.5,0.8-1.1,0.8c-2.6,0-5.3,0-7.9,0c-3.8,0-7.2-2.7-8.3-6.5c-1-3.6,0.6-7.7,3.8-9.7
		c1.5-0.9,3.1-1.4,4.8-1.4c2.6,0,5.2,0,7.8,0c0.6,0,0.9,0.1,0.9,0.8c0,0.7-0.3,0.9-0.9,0.9C115.8,8.2,114.4,8.2,112.6,8.2z"/>
	<path class="st1" d="M196.1,22.6c1.2,0,2.3,0,3.5,0c3.7,0.1,6.9-2.7,7.3-6.5c0.4-3.7-2.2-7.1-5.9-7.8c-0.4-0.1-0.8-0.1-1.3-0.1
		c-2.7,0-5.3,0-8,0c-0.7,0-0.8-0.2-0.8-0.8c0-0.6,0.2-0.8,0.8-0.8c3.1,0.1,6.2-0.2,9.3,0.2c4.3,0.5,7.5,4.6,7.4,8.9
		c-0.1,4.7-4.2,8.6-9.1,8.5c-2.4-0.1-4.8,0-7.3,0c-0.5,0-1.1,0.2-1.1-0.8c0-1,0.6-0.8,1.2-0.8C193.4,22.6,194.7,22.6,196.1,22.6z"/>
	<path class="st2" d="M65.8,6.6c3.3,5.9,6.6,11.6,9.8,17.4c-1.7,0.3-1.7,0.3-2.5-1.1c-2.4-4.3-4.8-8.6-7.3-12.9
		c-0.4,0.2-0.4,0.5-0.6,0.8c-2.3,4-4.6,7.9-6.7,12c-0.6,1.1-1.3,1.6-2.6,1.2C59.2,18.3,62.5,12.5,65.8,6.6z"/>
	<path class="st2" d="M43.5,15.3c1.9,0,3.5,1.2,4.1,3c0.2,0.6,0.2,1.1-0.5,1.4c-0.6,0.2-1.2,0.2-1.5-0.6c-0.4-1-1.1-1.6-2.3-1.6
		c-1.1,0-1.8,0.7-2.2,1.6c-0.3,0.7-0.8,0.8-1.4,0.6c-0.7-0.2-0.7-0.7-0.6-1.3C39.8,16.6,41.6,15.3,43.5,15.3z"/>
	<path class="st2" d="M35.4,19.8c-0.5,0-0.9-0.2-1-0.7c-0.4-1-1.1-1.6-2.2-1.6c-1.1,0-1.8,0.6-2.2,1.6c-0.3,0.7-0.9,0.8-1.5,0.6
		c-0.7-0.2-0.7-0.8-0.5-1.4c0.5-1.7,2.4-3,4.3-3c1.9,0.1,3.7,1.5,4.1,3.2C36.6,19.2,36.2,19.8,35.4,19.8z"/>
	<path class="st1" d="M54.1,2.2c0,0.4-0.1,0.6-0.3,0.8c-0.9,1.1-1.8,2.2-2.7,3.4c-0.4,0.5-0.7,0.5-1.1,0.2c-0.4-0.4-0.5-0.7-0.1-1.2
		c1-1.2,1.9-2.3,2.8-3.5c0.2-0.3,0.5-0.4,0.8-0.3C53.8,1.8,54.1,2,54.1,2.2z"/>
	<path class="st3" d="M55.1,7c0.6,0,0.7,0.4,0.8,0.7C56,8,56,8.4,55.6,8.5c-1.1,0.4-2.3,0.7-3.4,1.1c-0.4,0.1-0.7-0.1-0.8-0.5
		c-0.1-0.4-0.3-0.8,0.2-0.9C52.8,7.7,54,7.3,55.1,7z"/>
	<path class="st4" d="M48.5,1.7c-0.1,1-0.2,1.9-0.3,2.9C48,5.1,47.6,5,47.2,5c-0.4,0-0.7-0.2-0.7-0.6c0.1-1,0.2-2.1,0.4-3.1
		c0.1-0.5,0.5-0.4,0.9-0.4C48.3,0.9,48.5,1.2,48.5,1.7z"/>
	<path class="st1" d="M153,6.6c-4.8,0-8.9,4-8.8,8.8c0.1,4.9,3.9,8.6,8.8,8.7c4.8,0,8.8-4,8.7-8.8C161.8,10.6,157.7,6.6,153,6.6z
		 M153,22.6c-4,0-7.2-3.2-7.2-7.1c0-4,3.2-7.2,7.1-7.2c4.1,0,7.3,3.1,7.3,7.1C160.2,19.5,157.1,22.6,153,22.6z"/>
</g>
</svg>
